<?xml version="1.0" encoding="UTF-8" standalone="no"?>
<!DOCTYPE svg PUBLIC "-//W3C//DTD SVG 1.1//EN"
 "http://www.w3.org/Graphics/SVG/1.1/DTD/svg11.dtd">
<!-- Generated by graphviz version 2.43.0 (0)
 -->
<!-- Title: BDD Pages: 1 -->
<svg width="986pt" height="601pt"
 viewBox="0.00 0.00 985.50 601.00" xmlns="http://www.w3.org/2000/svg" xmlns:xlink="http://www.w3.org/1999/xlink">
<g id="graph0" class="graph" transform="scale(1 1) rotate(0) translate(4 597)">
<title>BDD</title>
<polygon fill="white" stroke="transparent" points="-4,4 -4,-597 981.5,-597 981.5,4 -4,4"/>
<!-- T1 -->
<g id="node1" class="node">
<title>T1</title>
<polygon fill="none" stroke="black" points="469,-29 411,-29 411,0 469,0 469,-29"/>
<text text-anchor="middle" x="440" y="-11.4" font-family="Helvetica,sans-Serif" font-size="12.00">1</text>
</g>
<!-- T0 -->
<g id="node2" class="node">
<title>T0</title>
<polygon fill="none" stroke="black" points="931,-29 873,-29 873,0 931,0 931,-29"/>
<text text-anchor="middle" x="902" y="-11.4" font-family="Helvetica,sans-Serif" font-size="12.00">0</text>
</g>
<!-- N1 -->
<g id="node3" class="node">
<title>N1</title>
<ellipse fill="none" stroke="black" cx="415" cy="-571.5" rx="21.5" ry="21.5"/>
<text text-anchor="middle" x="415" y="-568.4" font-family="Helvetica,sans-Serif" font-size="12.00">P1</text>
</g>
<!-- N2_L -->
<g id="node4" class="node">
<title>N2_L</title>
<ellipse fill="none" stroke="black" cx="333" cy="-477.5" rx="21.5" ry="21.5"/>
<text text-anchor="middle" x="333" y="-474.4" font-family="Helvetica,sans-Serif" font-size="12.00">P2</text>
</g>
<!-- N1&#45;&gt;N2_L -->
<g id="edge1" class="edge">
<title>N1&#45;&gt;N2_L</title>
<path fill="none" stroke="black" d="M401.09,-554.89C388.13,-540.35 368.64,-518.48 353.83,-501.86"/>
<polygon fill="black" stroke="black" points="356.24,-499.32 346.98,-494.18 351.02,-503.98 356.24,-499.32"/>
<text text-anchor="middle" x="383" y="-520.8" font-family="Times,serif" font-size="14.00">1</text>
</g>
<!-- N2_R -->
<g id="node5" class="node">
<title>N2_R</title>
<ellipse fill="none" stroke="black" cx="477" cy="-477.5" rx="21.5" ry="21.5"/>
<text text-anchor="middle" x="477" y="-474.4" font-family="Helvetica,sans-Serif" font-size="12.00">P2</text>
</g>
<!-- N1&#45;&gt;N2_R -->
<g id="edge2" class="edge">
<title>N1&#45;&gt;N2_R</title>
<path fill="none" stroke="black" stroke-dasharray="5,2" d="M426.66,-553.2C435.93,-539.45 449.03,-520 459.55,-504.4"/>
<polygon fill="black" stroke="black" points="462.7,-505.98 465.39,-495.73 456.9,-502.06 462.7,-505.98"/>
<text text-anchor="middle" x="454" y="-520.8" font-family="Times,serif" font-size="14.00">0</text>
</g>
<!-- N3_L -->
<g id="node6" class="node">
<title>N3_L</title>
<ellipse fill="none" stroke="black" cx="333" cy="-383.5" rx="21.5" ry="21.5"/>
<text text-anchor="middle" x="333" y="-380.4" font-family="Helvetica,sans-Serif" font-size="12.00">P3</text>
</g>
<!-- N2_L&#45;&gt;N3_L -->
<g id="edge3" class="edge">
<title>N2_L&#45;&gt;N3_L</title>
<path fill="none" stroke="black" d="M333,-455.62C333,-443.74 333,-428.64 333,-415.41"/>
<polygon fill="black" stroke="black" points="336.5,-415.29 333,-405.29 329.5,-415.29 336.5,-415.29"/>
<text text-anchor="middle" x="338" y="-426.8" font-family="Times,serif" font-size="14.00">1</text>
</g>
<!-- N3_M -->
<g id="node7" class="node">
<title>N3_M</title>
<ellipse fill="none" stroke="black" cx="126" cy="-383.5" rx="21.5" ry="21.5"/>
<text text-anchor="middle" x="126" y="-380.4" font-family="Helvetica,sans-Serif" font-size="12.00">P3</text>
</g>
<!-- N2_L&#45;&gt;N3_M -->
<g id="edge4" class="edge">
<title>N2_L&#45;&gt;N3_M</title>
<path fill="none" stroke="black" stroke-dasharray="5,2" d="M313.53,-467.84C276.83,-451.54 197.3,-416.19 154.55,-397.19"/>
<polygon fill="black" stroke="black" points="155.83,-393.93 145.27,-393.07 152.99,-400.32 155.83,-393.93"/>
<text text-anchor="middle" x="246" y="-426.8" font-family="Times,serif" font-size="14.00">0</text>
</g>
<!-- N2_R&#45;&gt;T1 -->
<g id="edge6" class="edge">
<title>N2_R&#45;&gt;T1</title>
<path fill="none" stroke="black" stroke-dasharray="5,2" d="M477,-455.67C477,-437.03 477,-408.94 477,-384.5 477,-384.5 477,-384.5 477,-100.5 477,-77.69 465.66,-54.08 455.53,-37.55"/>
<polygon fill="black" stroke="black" points="458.47,-35.65 450.11,-29.14 452.59,-39.44 458.47,-35.65"/>
<text text-anchor="middle" x="482" y="-238.8" font-family="Times,serif" font-size="14.00">0</text>
</g>
<!-- N3_R -->
<g id="node8" class="node">
<title>N3_R</title>
<ellipse fill="none" stroke="black" cx="591" cy="-383.5" rx="21.5" ry="21.5"/>
<text text-anchor="middle" x="591" y="-380.4" font-family="Helvetica,sans-Serif" font-size="12.00">P3</text>
</g>
<!-- N2_R&#45;&gt;N3_R -->
<g id="edge5" class="edge">
<title>N2_R&#45;&gt;N3_R</title>
<path fill="none" stroke="black" d="M493.33,-463.32C512.55,-447.81 544.63,-421.92 566.75,-404.07"/>
<polygon fill="black" stroke="black" points="569.11,-406.66 574.7,-397.66 564.72,-401.21 569.11,-406.66"/>
<text text-anchor="middle" x="545" y="-426.8" font-family="Times,serif" font-size="14.00">1</text>
</g>
<!-- N3_L&#45;&gt;T1 -->
<g id="edge8" class="edge">
<title>N3_L&#45;&gt;T1</title>
<path fill="none" stroke="black" stroke-dasharray="5,2" d="M350.3,-370.71C371.03,-355.03 403,-325.22 403,-290.5 403,-290.5 403,-290.5 403,-100.5 403,-77.69 414.34,-54.08 424.47,-37.55"/>
<polygon fill="black" stroke="black" points="427.41,-39.44 429.89,-29.14 421.53,-35.65 427.41,-39.44"/>
<text text-anchor="middle" x="408" y="-191.8" font-family="Times,serif" font-size="14.00">0</text>
</g>
<!-- N4_L -->
<g id="node9" class="node">
<title>N4_L</title>
<ellipse fill="none" stroke="black" cx="312" cy="-289.5" rx="21.5" ry="21.5"/>
<text text-anchor="middle" x="312" y="-286.4" font-family="Helvetica,sans-Serif" font-size="12.00">P4</text>
</g>
<!-- N3_L&#45;&gt;N4_L -->
<g id="edge7" class="edge">
<title>N3_L&#45;&gt;N4_L</title>
<path fill="none" stroke="black" d="M328.34,-362.08C325.55,-349.85 321.95,-334.08 318.84,-320.45"/>
<polygon fill="black" stroke="black" points="322.21,-319.51 316.58,-310.54 315.39,-321.07 322.21,-319.51"/>
<text text-anchor="middle" x="328" y="-332.8" font-family="Times,serif" font-size="14.00">1</text>
</g>
<!-- N3_M&#45;&gt;T1 -->
<g id="edge9" class="edge">
<title>N3_M&#45;&gt;T1</title>
<path fill="none" stroke="black" d="M105.19,-377.57C69.41,-367.71 0,-341.96 0,-290.5 0,-290.5 0,-290.5 0,-100.5 0,-19.28 292.7,-14 400.64,-14.82"/>
<polygon fill="black" stroke="black" points="400.76,-18.32 410.79,-14.92 400.82,-11.32 400.76,-18.32"/>
<text text-anchor="middle" x="5" y="-191.8" font-family="Times,serif" font-size="14.00">1</text>
</g>
<!-- N5_L -->
<g id="node12" class="node">
<title>N5_L</title>
<ellipse fill="none" stroke="black" cx="126" cy="-195.5" rx="21.5" ry="21.5"/>
<text text-anchor="middle" x="126" y="-192.4" font-family="Helvetica,sans-Serif" font-size="12.00">P5</text>
</g>
<!-- N3_M&#45;&gt;N5_L -->
<g id="edge10" class="edge">
<title>N3_M&#45;&gt;N5_L</title>
<path fill="none" stroke="black" stroke-dasharray="5,2" d="M126,-361.88C126,-329.2 126,-265.31 126,-227.22"/>
<polygon fill="black" stroke="black" points="129.5,-227.21 126,-217.21 122.5,-227.21 129.5,-227.21"/>
<text text-anchor="middle" x="131" y="-285.8" font-family="Times,serif" font-size="14.00">0</text>
</g>
<!-- N4_M -->
<g id="node10" class="node">
<title>N4_M</title>
<ellipse fill="none" stroke="black" cx="591" cy="-289.5" rx="21.5" ry="21.5"/>
<text text-anchor="middle" x="591" y="-286.4" font-family="Helvetica,sans-Serif" font-size="12.00">P4</text>
</g>
<!-- N3_R&#45;&gt;N4_M -->
<g id="edge11" class="edge">
<title>N3_R&#45;&gt;N4_M</title>
<path fill="none" stroke="black" d="M591,-361.62C591,-349.74 591,-334.64 591,-321.41"/>
<polygon fill="black" stroke="black" points="594.5,-321.29 591,-311.29 587.5,-321.29 594.5,-321.29"/>
<text text-anchor="middle" x="596" y="-332.8" font-family="Times,serif" font-size="14.00">1</text>
</g>
<!-- N4_R -->
<g id="node11" class="node">
<title>N4_R</title>
<ellipse fill="none" stroke="black" cx="750" cy="-289.5" rx="21.5" ry="21.5"/>
<text text-anchor="middle" x="750" y="-286.4" font-family="Helvetica,sans-Serif" font-size="12.00">P4</text>
</g>
<!-- N3_R&#45;&gt;N4_R -->
<g id="edge12" class="edge">
<title>N3_R&#45;&gt;N4_R</title>
<path fill="none" stroke="black" stroke-dasharray="5,2" d="M609.24,-371.95C637.01,-355.88 690.07,-325.18 722.52,-306.4"/>
<polygon fill="black" stroke="black" points="724.58,-309.25 731.48,-301.21 721.08,-303.19 724.58,-309.25"/>
<text text-anchor="middle" x="685" y="-332.8" font-family="Times,serif" font-size="14.00">0</text>
</g>
<!-- N4_L&#45;&gt;T1 -->
<g id="edge13" class="edge">
<title>N4_L&#45;&gt;T1</title>
<path fill="none" stroke="black" d="M311.84,-267.83C312.57,-222.61 320.29,-113.65 375,-47 381.93,-38.55 391.68,-32.21 401.52,-27.51"/>
<polygon fill="black" stroke="black" points="403.08,-30.65 410.89,-23.5 400.32,-24.21 403.08,-30.65"/>
<text text-anchor="middle" x="333" y="-144.8" font-family="Times,serif" font-size="14.00">1</text>
</g>
<!-- N4_L&#45;&gt;T1 -->
<g id="edge14" class="edge">
<title>N4_L&#45;&gt;T1</title>
<path fill="none" stroke="black" stroke-dasharray="5,2" d="M306.45,-268.67C305.03,-262.72 303.71,-256.14 303,-250 302.24,-243.38 302.89,-241.67 303,-235 304.11,-165.37 291.46,-140.48 326,-80 335.68,-63.04 338.91,-58.06 355,-47 368.83,-37.49 385.89,-30.44 401.08,-25.45"/>
<polygon fill="black" stroke="black" points="402.23,-28.75 410.75,-22.46 400.16,-22.07 402.23,-28.75"/>
<text text-anchor="middle" x="308" y="-144.8" font-family="Times,serif" font-size="14.00">0</text>
</g>
<!-- N4_M&#45;&gt;T1 -->
<g id="edge15" class="edge">
<title>N4_M&#45;&gt;T1</title>
<path fill="none" stroke="black" d="M588.94,-268.06C583.39,-222.85 564.27,-113.12 505,-47 497.77,-38.93 488.02,-32.72 478.27,-28.04"/>
<polygon fill="black" stroke="black" points="479.57,-24.79 469,-24 476.77,-31.2 479.57,-24.79"/>
<text text-anchor="middle" x="568" y="-144.8" font-family="Times,serif" font-size="14.00">1</text>
</g>
<!-- N5_M1 -->
<g id="node13" class="node">
<title>N5_M1</title>
<ellipse fill="none" stroke="black" cx="635" cy="-195.5" rx="21.5" ry="21.5"/>
<text text-anchor="middle" x="635" y="-192.4" font-family="Helvetica,sans-Serif" font-size="12.00">P5</text>
</g>
<!-- N4_M&#45;&gt;N5_M1 -->
<g id="edge16" class="edge">
<title>N4_M&#45;&gt;N5_M1</title>
<path fill="none" stroke="black" stroke-dasharray="5,2" d="M599.9,-269.88C606.17,-256.79 614.65,-239.04 621.71,-224.28"/>
<polygon fill="black" stroke="black" points="624.95,-225.62 626.11,-215.09 618.64,-222.6 624.95,-225.62"/>
<text text-anchor="middle" x="620" y="-238.8" font-family="Times,serif" font-size="14.00">0</text>
</g>
<!-- N5_M2 -->
<g id="node14" class="node">
<title>N5_M2</title>
<ellipse fill="none" stroke="black" cx="750" cy="-195.5" rx="21.5" ry="21.5"/>
<text text-anchor="middle" x="750" y="-192.4" font-family="Helvetica,sans-Serif" font-size="12.00">P5</text>
</g>
<!-- N4_R&#45;&gt;N5_M2 -->
<g id="edge17" class="edge">
<title>N4_R&#45;&gt;N5_M2</title>
<path fill="none" stroke="black" d="M750,-267.62C750,-255.74 750,-240.64 750,-227.41"/>
<polygon fill="black" stroke="black" points="753.5,-227.29 750,-217.29 746.5,-227.29 753.5,-227.29"/>
<text text-anchor="middle" x="755" y="-238.8" font-family="Times,serif" font-size="14.00">1</text>
</g>
<!-- N5_R -->
<g id="node15" class="node">
<title>N5_R</title>
<ellipse fill="none" stroke="black" cx="888" cy="-195.5" rx="21.5" ry="21.5"/>
<text text-anchor="middle" x="888" y="-192.4" font-family="Helvetica,sans-Serif" font-size="12.00">P5</text>
</g>
<!-- N4_R&#45;&gt;N5_R -->
<g id="edge18" class="edge">
<title>N4_R&#45;&gt;N5_R</title>
<path fill="none" stroke="black" stroke-dasharray="5,2" d="M767.48,-276.85C791.3,-260.97 834.16,-232.4 861.82,-213.95"/>
<polygon fill="black" stroke="black" points="863.85,-216.81 870.23,-208.35 859.97,-210.98 863.85,-216.81"/>
<text text-anchor="middle" x="832" y="-238.8" font-family="Times,serif" font-size="14.00">0</text>
</g>
<!-- N5_L&#45;&gt;T1 -->
<g id="edge19" class="edge">
<title>N5_L&#45;&gt;T1</title>
<path fill="none" stroke="black" d="M131.15,-174.6C140.7,-142 164.47,-77.79 210,-47 240.33,-26.49 343.46,-19.23 400.78,-16.74"/>
<polygon fill="black" stroke="black" points="401.07,-20.23 410.92,-16.33 400.79,-13.23 401.07,-20.23"/>
<text text-anchor="middle" x="180" y="-97.8" font-family="Times,serif" font-size="14.00">1</text>
</g>
<!-- N5_L&#45;&gt;T1 -->
<g id="edge20" class="edge">
<title>N5_L&#45;&gt;T1</title>
<path fill="none" stroke="black" stroke-dasharray="5,2" d="M121.77,-174.3C117.84,-150.1 114.86,-109.18 132,-80 145.67,-56.72 157.62,-56.21 183,-47 256.73,-20.24 349.34,-15.33 400.84,-14.91"/>
<polygon fill="black" stroke="black" points="400.89,-18.41 410.88,-14.88 400.87,-11.41 400.89,-18.41"/>
<text text-anchor="middle" x="137" y="-97.8" font-family="Times,serif" font-size="14.00">0</text>
</g>
<!-- N5_M1&#45;&gt;T1 -->
<g id="edge21" class="edge">
<title>N5_M1&#45;&gt;T1</title>
<path fill="none" stroke="black" d="M633.23,-173.91C629.33,-141.79 617.04,-80.06 579,-47 564.3,-34.22 515.09,-25.25 479.4,-20.23"/>
<polygon fill="black" stroke="black" points="479.64,-16.73 469.26,-18.86 478.71,-23.67 479.64,-16.73"/>
<text text-anchor="middle" x="627" y="-97.8" font-family="Times,serif" font-size="14.00">1</text>
</g>
<!-- N5_M1&#45;&gt;N5_M2 -->
<g id="edge22" class="edge">
<title>N5_M1&#45;&gt;N5_M2</title>
<path fill="none" stroke="black" stroke-dasharray="5,2" d="M656.63,-195.5C674.06,-195.5 698.81,-195.5 718.45,-195.5"/>
<polygon fill="black" stroke="black" points="718.47,-199 728.47,-195.5 718.47,-192 718.47,-199"/>
<text text-anchor="middle" x="692.5" y="-202.3" font-family="Times,serif" font-size="14.00">0</text>
</g>
<!-- N5_M2&#45;&gt;T1 -->
<g id="edge23" class="edge">
<title>N5_M2&#45;&gt;T1</title>
<path fill="none" stroke="black" d="M738.99,-176.51C718.49,-144.7 671.24,-78.91 613,-47 571.21,-24.1 516.06,-17.42 479.39,-15.69"/>
<polygon fill="black" stroke="black" points="479.22,-12.18 469.09,-15.31 478.96,-19.17 479.22,-12.18"/>
<text text-anchor="middle" x="703" y="-97.8" font-family="Times,serif" font-size="14.00">1</text>
</g>
<!-- N5_M2&#45;&gt;T0 -->
<g id="edge24" class="edge">
<title>N5_M2&#45;&gt;T0</title>
<path fill="none" stroke="black" stroke-dasharray="5,2" d="M761.13,-177.04C776.22,-153.89 804.57,-112.21 833,-80 846.97,-64.17 864.34,-47.95 878.15,-35.74"/>
<polygon fill="black" stroke="black" points="880.59,-38.25 885.83,-29.04 875.99,-32.98 880.59,-38.25"/>
<text text-anchor="middle" x="838" y="-97.8" font-family="Times,serif" font-size="14.00">0</text>
</g>
<!-- N5_R&#45;&gt;T1 -->
<g id="edge25" class="edge">
<title>N5_R&#45;&gt;T1</title>
<path fill="none" stroke="black" d="M886.89,-173.6C884.32,-147.52 875.84,-103.49 848,-80 792.64,-33.3 570.61,-20.14 479.41,-16.66"/>
<polygon fill="black" stroke="black" points="479.33,-13.16 469.21,-16.3 479.08,-20.16 479.33,-13.16"/>
<text text-anchor="middle" x="880" y="-97.8" font-family="Times,serif" font-size="14.00">1</text>
</g>
<!-- N6_R -->
<g id="node16" class="node">
<title>N6_R</title>
<ellipse fill="none" stroke="black" cx="956" cy="-101.5" rx="21.5" ry="21.5"/>
<text text-anchor="middle" x="956" y="-98.4" font-family="Helvetica,sans-Serif" font-size="12.00">P6</text>
</g>
<!-- N5_R&#45;&gt;N6_R -->
<g id="edge26" class="edge">
<title>N5_R&#45;&gt;N6_R</title>
<path fill="none" stroke="black" stroke-dasharray="5,2" d="M900.47,-177.63C910.82,-163.62 925.7,-143.49 937.45,-127.6"/>
<polygon fill="black" stroke="black" points="940.48,-129.39 943.61,-119.27 934.85,-125.23 940.48,-129.39"/>
<text text-anchor="middle" x="931" y="-144.8" font-family="Times,serif" font-size="14.00">0</text>
</g>
<!-- N6_R&#45;&gt;T1 -->
<g id="edge27" class="edge">
<title>N6_R&#45;&gt;T1</title>
<path fill="none" stroke="black" d="M945.4,-82.74C936.96,-70.37 923.93,-54.76 908,-47 869.96,-28.47 585.15,-19.26 479.39,-16.46"/>
<polygon fill="black" stroke="black" points="479.23,-12.95 469.14,-16.19 479.05,-19.95 479.23,-12.95"/>
<text text-anchor="middle" x="933" y="-50.8" font-family="Times,serif" font-size="14.00">1</text>
</g>
<!-- N6_R&#45;&gt;T0 -->
<g id="edge28" class="edge">
<title>N6_R&#45;&gt;T0</title>
<path fill="none" stroke="black" stroke-dasharray="5,2" d="M962.19,-80.68C964.33,-70.01 964.91,-57.02 959,-47 954.58,-39.51 947.67,-33.68 940.17,-29.18"/>
<polygon fill="black" stroke="black" points="941.69,-26.03 931.2,-24.5 938.45,-32.23 941.69,-26.03"/>
<text text-anchor="middle" x="968" y="-50.8" font-family="Times,serif" font-size="14.00">0</text>
</g>
</g>
</svg>
