<?xml version="1.0" encoding="UTF-8" standalone="no"?>
<!DOCTYPE svg PUBLIC "-//W3C//DTD SVG 1.1//EN"
 "http://www.w3.org/Graphics/SVG/1.1/DTD/svg11.dtd">
<!-- Generated by graphviz version 14.0.5 (20251129.0259)
 -->
<!-- Title: BDD Pages: 1 -->
<svg width="967pt" height="611pt"
 viewBox="0.00 0.00 967.00 611.00" xmlns="http://www.w3.org/2000/svg" xmlns:xlink="http://www.w3.org/1999/xlink">
<g id="graph0" class="graph" transform="scale(1 1) rotate(0) translate(4 607)">
<title>BDD</title>
<polygon fill="white" stroke="none" points="-4,4 -4,-607 962.6,-607 962.6,4 -4,4"/>
<!-- T1 -->
<g id="node1" class="node">
<title>T1</title>
<polygon fill="none" stroke="black" points="462.8,-28.8 405.2,-28.8 405.2,0 462.8,0 462.8,-28.8"/>
<text xml:space="preserve" text-anchor="middle" x="434" y="-10.12" font-family="Helvetica,sans-Serif" font-size="12.00">1</text>
</g>
<!-- T0 -->
<g id="node2" class="node">
<title>T0</title>
<polygon fill="none" stroke="black" points="915.8,-28.8 858.2,-28.8 858.2,0 915.8,0 915.8,-28.8"/>
<text xml:space="preserve" text-anchor="middle" x="887" y="-10.12" font-family="Helvetica,sans-Serif" font-size="12.00">0</text>
</g>
<!-- N1 -->
<g id="node3" class="node">
<title>N1</title>
<ellipse fill="none" stroke="black" cx="410" cy="-581.4" rx="21.6" ry="21.6"/>
<text xml:space="preserve" text-anchor="middle" x="410" y="-577.13" font-family="Helvetica,sans-Serif" font-size="12.00">P1</text>
</g>
<!-- N2_L -->
<g id="node4" class="node">
<title>N2_L</title>
<ellipse fill="none" stroke="black" cx="328" cy="-485.7" rx="21.6" ry="21.6"/>
<text xml:space="preserve" text-anchor="middle" x="328" y="-481.43" font-family="Helvetica,sans-Serif" font-size="12.00">P2</text>
</g>
<!-- N1&#45;&gt;N2_L -->
<g id="edge1" class="edge">
<title>N1&#45;&gt;N2_L</title>
<path fill="none" stroke="black" d="M396.09,-564.51C383.25,-549.83 363.99,-527.83 349.23,-510.96"/>
<polygon fill="black" stroke="black" points="352.19,-509.03 342.98,-503.81 346.93,-513.64 352.19,-509.03"/>
<text xml:space="preserve" text-anchor="middle" x="377.28" y="-528.5" font-family="Times New Roman,serif" font-size="14.00">1</text>
</g>
<!-- N2_R -->
<g id="node5" class="node">
<title>N2_R</title>
<ellipse fill="none" stroke="black" cx="471" cy="-485.7" rx="21.6" ry="21.6"/>
<text xml:space="preserve" text-anchor="middle" x="471" y="-481.43" font-family="Helvetica,sans-Serif" font-size="12.00">P2</text>
</g>
<!-- N1&#45;&gt;N2_R -->
<g id="edge2" class="edge">
<title>N1&#45;&gt;N2_R</title>
<path fill="none" stroke="black" stroke-dasharray="5,2" d="M421.47,-562.78C430.51,-548.9 443.24,-529.34 453.54,-513.52"/>
<polygon fill="black" stroke="black" points="456.23,-515.8 458.75,-505.51 450.36,-511.98 456.23,-515.8"/>
<text xml:space="preserve" text-anchor="middle" x="447.53" y="-528.5" font-family="Times New Roman,serif" font-size="14.00">0</text>
</g>
<!-- N3_L -->
<g id="node6" class="node">
<title>N3_L</title>
<ellipse fill="none" stroke="black" cx="328" cy="-390" rx="21.6" ry="21.6"/>
<text xml:space="preserve" text-anchor="middle" x="328" y="-385.73" font-family="Helvetica,sans-Serif" font-size="12.00">P3</text>
</g>
<!-- N2_L&#45;&gt;N3_L -->
<g id="edge3" class="edge">
<title>N2_L&#45;&gt;N3_L</title>
<path fill="none" stroke="black" d="M328,-463.9C328,-451.98 328,-436.75 328,-423.3"/>
<polygon fill="black" stroke="black" points="331.5,-423.57 328,-413.57 324.5,-423.57 331.5,-423.57"/>
<text xml:space="preserve" text-anchor="middle" x="331.38" y="-432.8" font-family="Times New Roman,serif" font-size="14.00">1</text>
</g>
<!-- N3_M -->
<g id="node7" class="node">
<title>N3_M</title>
<ellipse fill="none" stroke="black" cx="123" cy="-390" rx="21.6" ry="21.6"/>
<text xml:space="preserve" text-anchor="middle" x="123" y="-385.73" font-family="Helvetica,sans-Serif" font-size="12.00">P3</text>
</g>
<!-- N2_L&#45;&gt;N3_M -->
<g id="edge4" class="edge">
<title>N2_L&#45;&gt;N3_M</title>
<path fill="none" stroke="black" stroke-dasharray="5,2" d="M308.34,-475.72C272.3,-459.24 195.42,-424.1 152.88,-404.66"/>
<polygon fill="black" stroke="black" points="154.52,-401.56 143.97,-400.59 151.61,-407.93 154.52,-401.56"/>
<text xml:space="preserve" text-anchor="middle" x="241.15" y="-432.8" font-family="Times New Roman,serif" font-size="14.00">0</text>
</g>
<!-- N2_R&#45;&gt;T1 -->
<g id="edge6" class="edge">
<title>N2_R&#45;&gt;T1</title>
<path fill="none" stroke="black" stroke-dasharray="5,2" d="M471,-463.86C471,-444.87 471,-416.05 471,-391 471,-391 471,-391 471,-101.9 471,-79.04 459.94,-55.32 449.92,-38.52"/>
<polygon fill="black" stroke="black" points="453.02,-36.88 444.72,-30.3 447.1,-40.62 453.02,-36.88"/>
<text xml:space="preserve" text-anchor="middle" x="474.38" y="-241.4" font-family="Times New Roman,serif" font-size="14.00">0</text>
</g>
<!-- N3_R -->
<g id="node8" class="node">
<title>N3_R</title>
<ellipse fill="none" stroke="black" cx="583" cy="-390" rx="21.6" ry="21.6"/>
<text xml:space="preserve" text-anchor="middle" x="583" y="-385.73" font-family="Helvetica,sans-Serif" font-size="12.00">P3</text>
</g>
<!-- N2_R&#45;&gt;N3_R -->
<g id="edge5" class="edge">
<title>N2_R&#45;&gt;N3_R</title>
<path fill="none" stroke="black" d="M487.05,-471.28C505.57,-455.78 536.26,-430.1 557.94,-411.96"/>
<polygon fill="black" stroke="black" points="560.03,-414.78 565.46,-405.68 555.54,-409.41 560.03,-414.78"/>
<text xml:space="preserve" text-anchor="middle" x="537.08" y="-432.8" font-family="Times New Roman,serif" font-size="14.00">1</text>
</g>
<!-- N3_L&#45;&gt;T1 -->
<g id="edge8" class="edge">
<title>N3_L&#45;&gt;T1</title>
<path fill="none" stroke="black" stroke-dasharray="5,2" d="M345.41,-376.58C365.85,-360.4 397,-330.05 397,-295.3 397,-295.3 397,-295.3 397,-101.9 397,-79.04 408.06,-55.32 418.08,-38.52"/>
<polygon fill="black" stroke="black" points="420.9,-40.62 423.28,-30.3 414.98,-36.88 420.9,-40.62"/>
<text xml:space="preserve" text-anchor="middle" x="400.38" y="-193.55" font-family="Times New Roman,serif" font-size="14.00">0</text>
</g>
<!-- N4_L -->
<g id="node9" class="node">
<title>N4_L</title>
<ellipse fill="none" stroke="black" cx="306" cy="-294.3" rx="21.6" ry="21.6"/>
<text xml:space="preserve" text-anchor="middle" x="306" y="-290.02" font-family="Helvetica,sans-Serif" font-size="12.00">P4</text>
</g>
<!-- N3_L&#45;&gt;N4_L -->
<g id="edge7" class="edge">
<title>N3_L&#45;&gt;N4_L</title>
<path fill="none" stroke="black" d="M323.23,-368.67C320.34,-356.39 316.61,-340.49 313.36,-326.63"/>
<polygon fill="black" stroke="black" points="316.8,-326 311.11,-317.07 309.99,-327.6 316.8,-326"/>
<text xml:space="preserve" text-anchor="middle" x="321.69" y="-337.1" font-family="Times New Roman,serif" font-size="14.00">1</text>
</g>
<!-- N3_M&#45;&gt;T1 -->
<g id="edge9" class="edge">
<title>N3_M&#45;&gt;T1</title>
<path fill="none" stroke="black" d="M102.13,-383.53C67.04,-372.93 0,-346.04 0,-295.3 0,-295.3 0,-295.3 0,-101.9 0,-22.11 285.72,-14.85 393.5,-14.95"/>
<polygon fill="black" stroke="black" points="393.32,-18.45 403.34,-14.99 393.35,-11.45 393.32,-18.45"/>
<text xml:space="preserve" text-anchor="middle" x="3.38" y="-193.55" font-family="Times New Roman,serif" font-size="14.00">1</text>
</g>
<!-- N5_L -->
<g id="node12" class="node">
<title>N5_L</title>
<ellipse fill="none" stroke="black" cx="123" cy="-198.6" rx="21.6" ry="21.6"/>
<text xml:space="preserve" text-anchor="middle" x="123" y="-194.32" font-family="Helvetica,sans-Serif" font-size="12.00">P5</text>
</g>
<!-- N3_M&#45;&gt;N5_L -->
<g id="edge10" class="edge">
<title>N3_M&#45;&gt;N5_L</title>
<path fill="none" stroke="black" stroke-dasharray="5,2" d="M123,-368.01C123,-335.08 123,-271.06 123,-232.13"/>
<polygon fill="black" stroke="black" points="126.5,-232.2 123,-222.2 119.5,-232.2 126.5,-232.2"/>
<text xml:space="preserve" text-anchor="middle" x="126.38" y="-289.25" font-family="Times New Roman,serif" font-size="14.00">0</text>
</g>
<!-- N4_M -->
<g id="node10" class="node">
<title>N4_M</title>
<ellipse fill="none" stroke="black" cx="583" cy="-294.3" rx="21.6" ry="21.6"/>
<text xml:space="preserve" text-anchor="middle" x="583" y="-290.02" font-family="Helvetica,sans-Serif" font-size="12.00">P4</text>
</g>
<!-- N3_R&#45;&gt;N4_M -->
<g id="edge11" class="edge">
<title>N3_R&#45;&gt;N4_M</title>
<path fill="none" stroke="black" d="M583,-368.2C583,-356.28 583,-341.05 583,-327.6"/>
<polygon fill="black" stroke="black" points="586.5,-327.87 583,-317.87 579.5,-327.87 586.5,-327.87"/>
<text xml:space="preserve" text-anchor="middle" x="586.38" y="-337.1" font-family="Times New Roman,serif" font-size="14.00">1</text>
</g>
<!-- N4_R -->
<g id="node11" class="node">
<title>N4_R</title>
<ellipse fill="none" stroke="black" cx="744" cy="-294.3" rx="21.6" ry="21.6"/>
<text xml:space="preserve" text-anchor="middle" x="744" y="-290.02" font-family="Helvetica,sans-Serif" font-size="12.00">P4</text>
</g>
<!-- N3_R&#45;&gt;N4_R -->
<g id="edge12" class="edge">
<title>N3_R&#45;&gt;N4_R</title>
<path fill="none" stroke="black" stroke-dasharray="5,2" d="M601.47,-378.25C629.42,-361.99 682.68,-330.99 715.59,-311.84"/>
<polygon fill="black" stroke="black" points="717.31,-314.88 724.19,-306.83 713.79,-308.83 717.31,-314.88"/>
<text xml:space="preserve" text-anchor="middle" x="676.51" y="-337.1" font-family="Times New Roman,serif" font-size="14.00">0</text>
</g>
<!-- N4_L&#45;&gt;T1 -->
<g id="edge13" class="edge">
<title>N4_L&#45;&gt;T1</title>
<path fill="none" stroke="black" d="M305.7,-272.55C306.12,-226.61 313.21,-115.01 369,-46.8 375.7,-38.61 385.05,-32.4 394.58,-27.77"/>
<polygon fill="black" stroke="black" points="395.68,-31.1 403.48,-23.93 392.91,-24.67 395.68,-31.1"/>
<text xml:space="preserve" text-anchor="middle" x="325.78" y="-145.7" font-family="Times New Roman,serif" font-size="14.00">1</text>
</g>
<!-- N4_L&#45;&gt;T1 -->
<g id="edge14" class="edge">
<title>N4_L&#45;&gt;T1</title>
<path fill="none" stroke="black" stroke-dasharray="5,2" d="M300.35,-273.02C298.97,-267.16 297.69,-260.72 297,-254.7 296.16,-247.41 296.82,-245.53 297,-238.2 298.73,-167.74 287.26,-143.71 320,-81.3 329.3,-63.56 332.61,-58.32 349,-46.8 362.57,-37.26 379.37,-30.25 394.45,-25.31"/>
<polygon fill="black" stroke="black" points="395.06,-28.78 403.6,-22.51 393.02,-22.09 395.06,-28.78"/>
<text xml:space="preserve" text-anchor="middle" x="301.63" y="-145.7" font-family="Times New Roman,serif" font-size="14.00">0</text>
</g>
<!-- N4_M&#45;&gt;T1 -->
<g id="edge15" class="edge">
<title>N4_M&#45;&gt;T1</title>
<path fill="none" stroke="black" d="M581.27,-272.45C576.4,-226.31 558.79,-114.34 499,-46.8 492.12,-39.03 482.89,-33 473.54,-28.4"/>
<polygon fill="black" stroke="black" points="475.02,-25.22 464.46,-24.4 472.2,-31.63 475.02,-25.22"/>
<text xml:space="preserve" text-anchor="middle" x="561.29" y="-145.7" font-family="Times New Roman,serif" font-size="14.00">1</text>
</g>
<!-- N5_M1 -->
<g id="node13" class="node">
<title>N5_M1</title>
<ellipse fill="none" stroke="black" cx="629" cy="-198.6" rx="21.6" ry="21.6"/>
<text xml:space="preserve" text-anchor="middle" x="629" y="-194.32" font-family="Helvetica,sans-Serif" font-size="12.00">P5</text>
</g>
<!-- N4_M&#45;&gt;N5_M1 -->
<g id="edge16" class="edge">
<title>N4_M&#45;&gt;N5_M1</title>
<path fill="none" stroke="black" stroke-dasharray="5,2" d="M592.31,-274.34C598.73,-261.26 607.39,-243.61 614.69,-228.76"/>
<polygon fill="black" stroke="black" points="617.77,-230.41 619.04,-219.89 611.49,-227.33 617.77,-230.41"/>
<text xml:space="preserve" text-anchor="middle" x="612.13" y="-241.4" font-family="Times New Roman,serif" font-size="14.00">0</text>
</g>
<!-- N5_M2 -->
<g id="node14" class="node">
<title>N5_M2</title>
<ellipse fill="none" stroke="black" cx="744" cy="-198.6" rx="21.6" ry="21.6"/>
<text xml:space="preserve" text-anchor="middle" x="744" y="-194.32" font-family="Helvetica,sans-Serif" font-size="12.00">P5</text>
</g>
<!-- N4_R&#45;&gt;N5_M2 -->
<g id="edge17" class="edge">
<title>N4_R&#45;&gt;N5_M2</title>
<path fill="none" stroke="black" d="M744,-272.5C744,-260.58 744,-245.35 744,-231.9"/>
<polygon fill="black" stroke="black" points="747.5,-232.17 744,-222.17 740.5,-232.17 747.5,-232.17"/>
<text xml:space="preserve" text-anchor="middle" x="747.38" y="-241.4" font-family="Times New Roman,serif" font-size="14.00">1</text>
</g>
<!-- N5_R -->
<g id="node15" class="node">
<title>N5_R</title>
<ellipse fill="none" stroke="black" cx="873" cy="-198.6" rx="21.6" ry="21.6"/>
<text xml:space="preserve" text-anchor="middle" x="873" y="-194.32" font-family="Helvetica,sans-Serif" font-size="12.00">P5</text>
</g>
<!-- N4_R&#45;&gt;N5_R -->
<g id="edge18" class="edge">
<title>N4_R&#45;&gt;N5_R</title>
<path fill="none" stroke="black" stroke-dasharray="5,2" d="M761.13,-280.86C783.01,-264.97 821.09,-237.3 846.67,-218.73"/>
<polygon fill="black" stroke="black" points="848.54,-221.69 854.57,-212.98 844.43,-216.03 848.54,-221.69"/>
<text xml:space="preserve" text-anchor="middle" x="819.6" y="-241.4" font-family="Times New Roman,serif" font-size="14.00">0</text>
</g>
<!-- N5_L&#45;&gt;T1 -->
<g id="edge19" class="edge">
<title>N5_L&#45;&gt;T1</title>
<path fill="none" stroke="black" d="M127.67,-177.01C136.41,-143.64 158.59,-78.32 204,-46.8 233.89,-26.05 336.03,-18.95 393.64,-16.57"/>
<polygon fill="black" stroke="black" points="393.5,-20.08 403.36,-16.2 393.23,-13.08 393.5,-20.08"/>
<text xml:space="preserve" text-anchor="middle" x="171.95" y="-97.85" font-family="Times New Roman,serif" font-size="14.00">1</text>
</g>
<!-- N5_L&#45;&gt;T1 -->
<g id="edge20" class="edge">
<title>N5_L&#45;&gt;T1</title>
<path fill="none" stroke="black" stroke-dasharray="5,2" d="M119.08,-177.13C115.5,-152.6 113.06,-111.09 130.25,-81.3 143.34,-58.62 153.63,-56.36 178,-46.8 216.38,-31.74 331.99,-22.1 393.88,-17.87"/>
<polygon fill="black" stroke="black" points="393.88,-21.38 403.63,-17.23 393.42,-14.4 393.88,-21.38"/>
<text xml:space="preserve" text-anchor="middle" x="133.62" y="-97.85" font-family="Times New Roman,serif" font-size="14.00">0</text>
</g>
<!-- N5_M1&#45;&gt;T1 -->
<g id="edge21" class="edge">
<title>N5_M1&#45;&gt;T1</title>
<path fill="none" stroke="black" d="M627.41,-176.82C623.75,-144.08 611.78,-80.73 573,-46.8 558.47,-34.09 509.97,-25.2 474.34,-20.2"/>
<polygon fill="black" stroke="black" points="475.16,-16.78 464.78,-18.92 474.22,-23.72 475.16,-16.78"/>
<text xml:space="preserve" text-anchor="middle" x="620" y="-97.85" font-family="Times New Roman,serif" font-size="14.00">1</text>
</g>
<!-- N5_M1&#45;&gt;N5_M2 -->
<g id="edge22" class="edge">
<title>N5_M1&#45;&gt;N5_M2</title>
<path fill="none" stroke="black" stroke-dasharray="5,2" d="M650.9,-198.6C667.85,-198.6 691.59,-198.6 710.86,-198.6"/>
<polygon fill="black" stroke="black" points="710.67,-202.1 720.67,-198.6 710.67,-195.1 710.67,-202.1"/>
<text xml:space="preserve" text-anchor="middle" x="686.5" y="-204.8" font-family="Times New Roman,serif" font-size="14.00">0</text>
</g>
<!-- N5_M2&#45;&gt;T1 -->
<g id="edge23" class="edge">
<title>N5_M2&#45;&gt;T1</title>
<path fill="none" stroke="black" d="M733.37,-179.45C713.34,-147.01 666.69,-79.45 608,-46.8 566.37,-23.64 511.26,-17.02 474.32,-15.4"/>
<polygon fill="black" stroke="black" points="474.63,-11.91 464.52,-15.08 474.4,-18.9 474.63,-11.91"/>
<text xml:space="preserve" text-anchor="middle" x="696.98" y="-97.85" font-family="Times New Roman,serif" font-size="14.00">1</text>
</g>
<!-- N5_M2&#45;&gt;T0 -->
<g id="edge24" class="edge">
<title>N5_M2&#45;&gt;T0</title>
<path fill="none" stroke="black" stroke-dasharray="5,2" d="M754.48,-179.5C768.46,-155.95 794.56,-113.95 821.25,-81.3 834.17,-65.49 850.35,-49.24 863.43,-36.83"/>
<polygon fill="black" stroke="black" points="865.49,-39.69 870.4,-30.31 860.71,-34.58 865.49,-39.69"/>
<text xml:space="preserve" text-anchor="middle" x="824.62" y="-97.85" font-family="Times New Roman,serif" font-size="14.00">0</text>
</g>
<!-- N5_R&#45;&gt;T1 -->
<g id="edge25" class="edge">
<title>N5_R&#45;&gt;T1</title>
<path fill="none" stroke="black" d="M871.98,-176.91C869.51,-150.57 861.14,-105.56 833,-81.3 779.69,-35.34 565.14,-20.95 474.61,-16.87"/>
<polygon fill="black" stroke="black" points="474.85,-13.38 464.71,-16.44 474.55,-20.37 474.85,-13.38"/>
<text xml:space="preserve" text-anchor="middle" x="863.92" y="-97.85" font-family="Times New Roman,serif" font-size="14.00">1</text>
</g>
<!-- N6_R -->
<g id="node16" class="node">
<title>N6_R</title>
<ellipse fill="none" stroke="black" cx="937" cy="-102.9" rx="21.6" ry="21.6"/>
<text xml:space="preserve" text-anchor="middle" x="937" y="-98.62" font-family="Helvetica,sans-Serif" font-size="12.00">P6</text>
</g>
<!-- N5_R&#45;&gt;N6_R -->
<g id="edge26" class="edge">
<title>N5_R&#45;&gt;N6_R</title>
<path fill="none" stroke="black" stroke-dasharray="5,2" d="M884.74,-180.41C894.24,-166.5 907.79,-146.66 918.72,-130.67"/>
<polygon fill="black" stroke="black" points="921.52,-132.78 924.27,-122.54 915.74,-128.83 921.52,-132.78"/>
<text xml:space="preserve" text-anchor="middle" x="912.21" y="-145.7" font-family="Times New Roman,serif" font-size="14.00">0</text>
</g>
<!-- N6_R&#45;&gt;T1 -->
<g id="edge27" class="edge">
<title>N6_R&#45;&gt;T1</title>
<path fill="none" stroke="black" d="M927.44,-83.11C919.92,-70.49 908.18,-54.75 893,-46.8 856.47,-27.66 580.11,-18.96 474.69,-16.32"/>
<polygon fill="black" stroke="black" points="474.88,-12.82 464.8,-16.08 474.71,-19.82 474.88,-12.82"/>
<text xml:space="preserve" text-anchor="middle" x="915.61" y="-50" font-family="Times New Roman,serif" font-size="14.00">1</text>
</g>
<!-- N6_R&#45;&gt;T0 -->
<g id="edge28" class="edge">
<title>N6_R&#45;&gt;T0</title>
<path fill="none" stroke="black" stroke-dasharray="5,2" d="M943.65,-82.07C946.14,-71 947.07,-57.36 941,-46.8 937.38,-40.51 931.96,-35.36 925.93,-31.19"/>
<polygon fill="black" stroke="black" points="927.82,-28.24 917.43,-26.18 924.27,-34.27 927.82,-28.24"/>
<text xml:space="preserve" text-anchor="middle" x="948.8" y="-50" font-family="Times New Roman,serif" font-size="14.00">0</text>
</g>
</g>
</svg>
