<?xml version="1.0" encoding="UTF-8" standalone="no"?>
<!DOCTYPE svg PUBLIC "-//W3C//DTD SVG 1.1//EN"
 "http://www.w3.org/Graphics/SVG/1.1/DTD/svg11.dtd">
<!-- Generated by graphviz version 14.1.0 (20251206.1807)
 -->
<!-- Title: BDD Pages: 1 -->
<svg width="190pt" height="433pt"
 viewBox="0.00 0.00 190.00 433.00" xmlns="http://www.w3.org/2000/svg" xmlns:xlink="http://www.w3.org/1999/xlink">
<g id="graph0" class="graph" transform="scale(1 1) rotate(0) translate(4 429.47)">
<title>BDD</title>
<polygon fill="white" stroke="none" points="-4,4 -4,-429.47 186.13,-429.47 186.13,4 -4,4"/>
<!-- n2505456033040 -->
<g id="node1" class="node">
<title>n2505456033040</title>
<polygon fill="none" stroke="black" points="138,-36 84,-36 84,0 138,0 138,-36"/>
<text xml:space="preserve" text-anchor="middle" x="111" y="-12.95" font-family="Times New Roman,serif" font-size="14.00">0</text>
</g>
<!-- n2505454701392 -->
<g id="node2" class="node">
<title>n2505454701392</title>
<polygon fill="none" stroke="black" points="54,-36 0,-36 0,0 54,0 54,-36"/>
<text xml:space="preserve" text-anchor="middle" x="27" y="-12.95" font-family="Times New Roman,serif" font-size="14.00">1</text>
</g>
<!-- n2505459773072 -->
<g id="node3" class="node">
<title>n2505459773072</title>
<ellipse fill="none" stroke="black" cx="27" cy="-113.24" rx="24.74" ry="24.74"/>
<text xml:space="preserve" text-anchor="middle" x="27" y="-108.19" font-family="Times New Roman,serif" font-size="14.00">p_2</text>
</g>
<!-- n2505459773072&#45;&#45;n2505456033040 -->
<g id="edge2" class="edge">
<title>n2505459773072&#45;&#45;n2505456033040</title>
<path fill="none" stroke="black" d="M39.25,-91.47C46.62,-79.84 56.61,-65.42 67.25,-54 73.09,-47.74 80.08,-41.65 86.75,-36.35"/>
<text xml:space="preserve" text-anchor="middle" x="70.62" y="-57.2" font-family="Times New Roman,serif" font-size="14.00">1</text>
</g>
<!-- n2505459773072&#45;&#45;n2505454701392 -->
<g id="edge1" class="edge">
<title>n2505459773072&#45;&#45;n2505454701392</title>
<path fill="none" stroke="black" stroke-dasharray="5,2" d="M27,-88.23C27,-72.04 27,-51.05 27,-36.45"/>
<text xml:space="preserve" text-anchor="middle" x="30.38" y="-57.2" font-family="Times New Roman,serif" font-size="14.00">0</text>
</g>
<!-- n2505459772368 -->
<g id="node4" class="node">
<title>n2505459772368</title>
<ellipse fill="none" stroke="black" cx="70" cy="-215.21" rx="24.74" ry="24.74"/>
<text xml:space="preserve" text-anchor="middle" x="70" y="-210.16" font-family="Times New Roman,serif" font-size="14.00">p_1</text>
</g>
<!-- n2505459772368&#45;&#45;n2505456033040 -->
<g id="edge4" class="edge">
<title>n2505459772368&#45;&#45;n2505456033040</title>
<path fill="none" stroke="black" d="M74.95,-190.67C83.29,-150.91 99.99,-71.4 107.36,-36.32"/>
<text xml:space="preserve" text-anchor="middle" x="99.28" y="-108.19" font-family="Times New Roman,serif" font-size="14.00">1</text>
</g>
<!-- n2505459772368&#45;&#45;n2505459773072 -->
<g id="edge3" class="edge">
<title>n2505459772368&#45;&#45;n2505459773072</title>
<path fill="none" stroke="black" stroke-dasharray="5,2" d="M60.46,-192.02C53.33,-175.46 43.64,-152.92 36.52,-136.36"/>
<text xml:space="preserve" text-anchor="middle" x="54.45" y="-159.17" font-family="Times New Roman,serif" font-size="14.00">0</text>
</g>
<!-- n2505459773008 -->
<g id="node5" class="node">
<title>n2505459773008</title>
<ellipse fill="none" stroke="black" cx="162" cy="-312.58" rx="20.13" ry="20.13"/>
<text xml:space="preserve" text-anchor="middle" x="162" y="-307.53" font-family="Times New Roman,serif" font-size="14.00">p2</text>
</g>
<!-- n2505459773008&#45;&#45;n2505456033040 -->
<g id="edge5" class="edge">
<title>n2505459773008&#45;&#45;n2505456033040</title>
<path fill="none" stroke="black" stroke-dasharray="5,2" d="M160.54,-292.24C156.97,-248.99 146.4,-141.35 124,-54 122.49,-48.1 120.33,-41.81 118.21,-36.22"/>
<text xml:space="preserve" text-anchor="middle" x="150.26" y="-159.17" font-family="Times New Roman,serif" font-size="14.00">0</text>
</g>
<!-- n2505459773008&#45;&#45;n2505459772368 -->
<g id="edge6" class="edge">
<title>n2505459773008&#45;&#45;n2505459772368</title>
<path fill="none" stroke="black" d="M148.43,-297.51C132.03,-280.51 104.46,-251.93 86.75,-233.58"/>
<text xml:space="preserve" text-anchor="middle" x="127.62" y="-261.15" font-family="Times New Roman,serif" font-size="14.00">1</text>
</g>
<!-- n2505459772688 -->
<g id="node6" class="node">
<title>n2505459772688</title>
<ellipse fill="none" stroke="black" cx="104" cy="-312.58" rx="20.13" ry="20.13"/>
<text xml:space="preserve" text-anchor="middle" x="104" y="-307.53" font-family="Times New Roman,serif" font-size="14.00">p2</text>
</g>
<!-- n2505459772688&#45;&#45;n2505456033040 -->
<g id="edge8" class="edge">
<title>n2505459772688&#45;&#45;n2505456033040</title>
<path fill="none" stroke="black" d="M104.46,-292.38C105.74,-238.73 109.35,-87.8 110.58,-36.4"/>
<text xml:space="preserve" text-anchor="middle" x="111.04" y="-159.17" font-family="Times New Roman,serif" font-size="14.00">1</text>
</g>
<!-- n2505459772688&#45;&#45;n2505459772368 -->
<g id="edge7" class="edge">
<title>n2505459772688&#45;&#45;n2505459772368</title>
<path fill="none" stroke="black" stroke-dasharray="5,2" d="M97.44,-293.19C91.93,-277.71 84.01,-255.51 78.1,-238.92"/>
<text xml:space="preserve" text-anchor="middle" x="93.42" y="-261.15" font-family="Times New Roman,serif" font-size="14.00">0</text>
</g>
<!-- n2505459775504 -->
<g id="node7" class="node">
<title>n2505459775504</title>
<ellipse fill="none" stroke="black" cx="133" cy="-405.34" rx="20.13" ry="20.13"/>
<text xml:space="preserve" text-anchor="middle" x="133" y="-400.29" font-family="Times New Roman,serif" font-size="14.00">p1</text>
</g>
<!-- n2505459775504&#45;&#45;n2505459773008 -->
<g id="edge9" class="edge">
<title>n2505459775504&#45;&#45;n2505459773008</title>
<path fill="none" stroke="black" stroke-dasharray="5,2" d="M138.87,-385.98C143.87,-370.33 151.02,-347.96 156.04,-332.23"/>
<text xml:space="preserve" text-anchor="middle" x="153.47" y="-353.91" font-family="Times New Roman,serif" font-size="14.00">0</text>
</g>
<!-- n2505459775504&#45;&#45;n2505459772688 -->
<g id="edge10" class="edge">
<title>n2505459775504&#45;&#45;n2505459772688</title>
<path fill="none" stroke="black" d="M127.13,-385.98C122.13,-370.33 114.98,-347.96 109.96,-332.23"/>
<text xml:space="preserve" text-anchor="middle" x="124.47" y="-353.91" font-family="Times New Roman,serif" font-size="14.00">1</text>
</g>
</g>
</svg>
