<?xml version="1.0" encoding="UTF-8" standalone="no"?>
<!DOCTYPE svg PUBLIC "-//W3C//DTD SVG 1.1//EN"
 "http://www.w3.org/Graphics/SVG/1.1/DTD/svg11.dtd">
<!-- Generated by graphviz version 14.0.5 (20251129.0259)
 -->
<!-- Title: BDD Pages: 1 -->
<svg width="564pt" height="1002pt"
 viewBox="0.00 0.00 564.00 1002.00" xmlns="http://www.w3.org/2000/svg" xmlns:xlink="http://www.w3.org/1999/xlink">
<g id="graph0" class="graph" transform="scale(1 1) rotate(0) translate(4 998.47)">
<title>BDD</title>
<polygon fill="white" stroke="none" points="-4,4 -4,-998.47 559.68,-998.47 559.68,4 -4,4"/>
<!-- n2899100753168 -->
<g id="node1" class="node">
<title>n2899100753168</title>
<polygon fill="none" stroke="black" points="378.93,-36 324.93,-36 324.93,0 378.93,0 378.93,-36"/>
<text xml:space="preserve" text-anchor="middle" x="351.93" y="-12.95" font-family="Times New Roman,serif" font-size="14.00">0</text>
</g>
<!-- n2899097340752 -->
<g id="node2" class="node">
<title>n2899097340752</title>
<polygon fill="none" stroke="black" points="162.93,-36 108.93,-36 108.93,0 162.93,0 162.93,-36"/>
<text xml:space="preserve" text-anchor="middle" x="135.93" y="-12.95" font-family="Times New Roman,serif" font-size="14.00">1</text>
</g>
<!-- n2897046211536 -->
<g id="node3" class="node">
<title>n2897046211536</title>
<ellipse fill="none" stroke="black" cx="54.93" cy="-143.43" rx="54.93" ry="54.93"/>
<text xml:space="preserve" text-anchor="middle" x="54.93" y="-138.38" font-family="Times New Roman,serif" font-size="14.00">p_wait_join</text>
</g>
<!-- n2897046211536&#45;&#45;n2899100753168 -->
<g id="edge1" class="edge">
<title>n2897046211536&#45;&#45;n2899100753168</title>
<path fill="none" stroke="black" stroke-dasharray="5,2" d="M82.18,-95.38C93.51,-79.81 108.06,-63.95 125.18,-54 158.68,-34.54 272.17,-24.45 324.76,-20.72"/>
<text xml:space="preserve" text-anchor="middle" x="128.56" y="-57.2" font-family="Times New Roman,serif" font-size="14.00">0</text>
</g>
<!-- n2897046211536&#45;&#45;n2899097340752 -->
<g id="edge2" class="edge">
<title>n2897046211536&#45;&#45;n2899097340752</title>
<path fill="none" stroke="black" d="M66.89,-89.64C71.3,-77.18 77.25,-64.48 85.18,-54 91.39,-45.81 100.08,-38.84 108.51,-33.33"/>
<text xml:space="preserve" text-anchor="middle" x="88.56" y="-57.2" font-family="Times New Roman,serif" font-size="14.00">1</text>
</g>
<!-- n2897046211088 -->
<g id="node4" class="node">
<title>n2897046211088</title>
<ellipse fill="none" stroke="black" cx="127.93" cy="-275.09" rx="24.23" ry="24.23"/>
<text xml:space="preserve" text-anchor="middle" x="127.93" y="-270.04" font-family="Times New Roman,serif" font-size="14.00">end</text>
</g>
<!-- n2897046211088&#45;&#45;n2899100753168 -->
<g id="edge4" class="edge">
<title>n2897046211088&#45;&#45;n2899100753168</title>
<path fill="none" stroke="black" d="M128.01,-250.71C128.7,-199.9 133.19,-81.72 159.93,-54 182.28,-30.83 277.22,-22.78 324.69,-20.16"/>
<text xml:space="preserve" text-anchor="middle" x="146.8" y="-138.38" font-family="Times New Roman,serif" font-size="14.00">1</text>
</g>
<!-- n2897046211088&#45;&#45;n2897046211536 -->
<g id="edge3" class="edge">
<title>n2897046211088&#45;&#45;n2897046211536</title>
<path fill="none" stroke="black" stroke-dasharray="5,2" d="M116.37,-253.55C107.04,-236.98 93.55,-213.03 81.59,-191.78"/>
<text xml:space="preserve" text-anchor="middle" x="107.7" y="-219.57" font-family="Times New Roman,serif" font-size="14.00">0</text>
</g>
<!-- n2897046209808 -->
<g id="node5" class="node">
<title>n2897046209808</title>
<ellipse fill="none" stroke="black" cx="225.93" cy="-143.43" rx="54.93" ry="54.93"/>
<text xml:space="preserve" text-anchor="middle" x="225.93" y="-138.38" font-family="Times New Roman,serif" font-size="14.00">p_wait_join</text>
</g>
<!-- n2897046209808&#45;&#45;n2899100753168 -->
<g id="edge6" class="edge">
<title>n2897046209808&#45;&#45;n2899100753168</title>
<path fill="none" stroke="black" d="M256.82,-97.6C268.22,-82.78 281.87,-66.82 296.18,-54 304.7,-46.38 315.07,-39.37 324.54,-33.66"/>
<text xml:space="preserve" text-anchor="middle" x="299.56" y="-57.2" font-family="Times New Roman,serif" font-size="14.00">1</text>
</g>
<!-- n2897046209808&#45;&#45;n2899097340752 -->
<g id="edge5" class="edge">
<title>n2897046209808&#45;&#45;n2899097340752</title>
<path fill="none" stroke="black" stroke-dasharray="5,2" d="M193.95,-98.57C178.29,-77.09 160.32,-52.45 148.59,-36.35"/>
<text xml:space="preserve" text-anchor="middle" x="176.25" y="-57.2" font-family="Times New Roman,serif" font-size="14.00">0</text>
</g>
<!-- n2897046212112 -->
<g id="node6" class="node">
<title>n2897046212112</title>
<ellipse fill="none" stroke="black" cx="240.93" cy="-275.09" rx="24.23" ry="24.23"/>
<text xml:space="preserve" text-anchor="middle" x="240.93" y="-270.04" font-family="Times New Roman,serif" font-size="14.00">end</text>
</g>
<!-- n2897046212112&#45;&#45;n2899100753168 -->
<g id="edge8" class="edge">
<title>n2897046212112&#45;&#45;n2899100753168</title>
<path fill="none" stroke="black" d="M255.26,-254.97C265.89,-240.11 280.17,-218.7 289.93,-198.37 319.2,-137.41 314.7,-117.5 337.93,-54 340.05,-48.22 342.5,-41.97 344.75,-36.37"/>
<text xml:space="preserve" text-anchor="middle" x="329.72" y="-138.38" font-family="Times New Roman,serif" font-size="14.00">1</text>
</g>
<!-- n2897046212112&#45;&#45;n2897046209808 -->
<g id="edge7" class="edge">
<title>n2897046212112&#45;&#45;n2897046209808</title>
<path fill="none" stroke="black" stroke-dasharray="5,2" d="M238.22,-250.61C236.53,-236.02 234.29,-216.62 232.18,-198.41"/>
<text xml:space="preserve" text-anchor="middle" x="239.46" y="-219.57" font-family="Times New Roman,serif" font-size="14.00">0</text>
</g>
<!-- n2897046209616 -->
<g id="node7" class="node">
<title>n2897046209616</title>
<ellipse fill="none" stroke="black" cx="67.93" cy="-412.38" rx="55.96" ry="55.96"/>
<text xml:space="preserve" text-anchor="middle" x="67.93" y="-407.33" font-family="Times New Roman,serif" font-size="14.00">p_choice_in</text>
</g>
<!-- n2897046209616&#45;&#45;n2897046211088 -->
<g id="edge9" class="edge">
<title>n2897046209616&#45;&#45;n2897046211088</title>
<path fill="none" stroke="black" stroke-dasharray="5,2" d="M81.9,-357.98C86.32,-344.38 91.76,-330.03 98.18,-317.32 102.25,-309.29 107.79,-301.11 113,-294.18"/>
<text xml:space="preserve" text-anchor="middle" x="101.56" y="-320.52" font-family="Times New Roman,serif" font-size="14.00">0</text>
</g>
<!-- n2897046209616&#45;&#45;n2897046212112 -->
<g id="edge10" class="edge">
<title>n2897046209616&#45;&#45;n2897046212112</title>
<path fill="none" stroke="black" d="M109.73,-374.98C118.92,-367.22 128.67,-359.15 137.93,-351.82 166.3,-329.37 200.3,-304.81 221.26,-289.93"/>
<text xml:space="preserve" text-anchor="middle" x="185.98" y="-320.52" font-family="Times New Roman,serif" font-size="14.00">1</text>
</g>
<!-- n2897046211984 -->
<g id="node8" class="node">
<title>n2897046211984</title>
<ellipse fill="none" stroke="black" cx="375.93" cy="-412.38" rx="60.56" ry="60.56"/>
<text xml:space="preserve" text-anchor="middle" x="375.93" y="-407.33" font-family="Times New Roman,serif" font-size="14.00">p_choice_out</text>
</g>
<!-- n2897046211984&#45;&#45;n2899100753168 -->
<g id="edge12" class="edge">
<title>n2897046211984&#45;&#45;n2899100753168</title>
<path fill="none" stroke="black" d="M380.61,-351.52C384.75,-279.93 387.24,-156.87 365.93,-54 364.71,-48.1 362.56,-41.93 360.31,-36.43"/>
<text xml:space="preserve" text-anchor="middle" x="386.6" y="-219.57" font-family="Times New Roman,serif" font-size="14.00">1</text>
</g>
<!-- n2897046211984&#45;&#45;n2897046212112 -->
<g id="edge11" class="edge">
<title>n2897046211984&#45;&#45;n2897046212112</title>
<path fill="none" stroke="black" stroke-dasharray="5,2" d="M333.59,-368.95C307.92,-343.22 276.58,-311.82 257.72,-292.91"/>
<text xml:space="preserve" text-anchor="middle" x="299.72" y="-320.52" font-family="Times New Roman,serif" font-size="14.00">0</text>
</g>
<!-- n2897046211600 -->
<g id="node9" class="node">
<title>n2897046211600</title>
<ellipse fill="none" stroke="black" cx="190.93" cy="-581.4" rx="55.96" ry="55.96"/>
<text xml:space="preserve" text-anchor="middle" x="190.93" y="-576.35" font-family="Times New Roman,serif" font-size="14.00">p_choice_in</text>
</g>
<!-- n2897046211600&#45;&#45;n2897046211088 -->
<g id="edge13" class="edge">
<title>n2897046211600&#45;&#45;n2897046211088</title>
<path fill="none" stroke="black" stroke-dasharray="5,2" d="M179.44,-526.39C175.96,-509.33 172.25,-490.38 169.18,-472.95 157.08,-404.07 165.26,-384.53 145.93,-317.32 143.99,-310.56 141.19,-303.46 138.37,-297.1"/>
<text xml:space="preserve" text-anchor="middle" x="172.56" y="-407.33" font-family="Times New Roman,serif" font-size="14.00">0</text>
</g>
<!-- n2897046211600&#45;&#45;n2897046211984 -->
<g id="edge14" class="edge">
<title>n2897046211600&#45;&#45;n2897046211984</title>
<path fill="none" stroke="black" d="M231.99,-543.34C261.48,-516.72 301.19,-480.86 331.43,-453.56"/>
<text xml:space="preserve" text-anchor="middle" x="292.36" y="-494.15" font-family="Times New Roman,serif" font-size="14.00">1</text>
</g>
<!-- n2897046209040 -->
<g id="node10" class="node">
<title>n2897046209040</title>
<ellipse fill="none" stroke="black" cx="190.93" cy="-726.37" rx="36.51" ry="36.51"/>
<text xml:space="preserve" text-anchor="middle" x="190.93" y="-721.32" font-family="Times New Roman,serif" font-size="14.00">p_par2</text>
</g>
<!-- n2897046209040&#45;&#45;n2897046209616 -->
<g id="edge15" class="edge">
<title>n2897046209040&#45;&#45;n2897046209616</title>
<path fill="none" stroke="black" stroke-dasharray="5,2" d="M165.13,-700.26C149.61,-683.75 130.69,-660.92 119.18,-637.36 92.74,-583.24 79.66,-515.04 73.38,-468.2"/>
<text xml:space="preserve" text-anchor="middle" x="122.56" y="-576.35" font-family="Times New Roman,serif" font-size="14.00">0</text>
</g>
<!-- n2897046209040&#45;&#45;n2897046211600 -->
<g id="edge16" class="edge">
<title>n2897046209040&#45;&#45;n2897046211600</title>
<path fill="none" stroke="black" d="M190.93,-689.66C190.93,-673.95 190.93,-655.13 190.93,-637.67"/>
<text xml:space="preserve" text-anchor="middle" x="194.31" y="-658.56" font-family="Times New Roman,serif" font-size="14.00">1</text>
</g>
<!-- n2897046209232 -->
<g id="node11" class="node">
<title>n2897046209232</title>
<ellipse fill="none" stroke="black" cx="240.93" cy="-412.38" rx="55.96" ry="55.96"/>
<text xml:space="preserve" text-anchor="middle" x="240.93" y="-407.33" font-family="Times New Roman,serif" font-size="14.00">p_choice_in</text>
</g>
<!-- n2897046209232&#45;&#45;n2899100753168 -->
<g id="edge18" class="edge">
<title>n2897046209232&#45;&#45;n2899100753168</title>
<path fill="none" stroke="black" d="M268.39,-363.2C290.94,-321.12 321.58,-257.66 336.93,-198.37 351.94,-140.44 352.89,-68.81 352.41,-36.39"/>
<text xml:space="preserve" text-anchor="middle" x="335.03" y="-219.57" font-family="Times New Roman,serif" font-size="14.00">1</text>
</g>
<!-- n2897046209232&#45;&#45;n2897046212112 -->
<g id="edge17" class="edge">
<title>n2897046209232&#45;&#45;n2897046212112</title>
<path fill="none" stroke="black" stroke-dasharray="5,2" d="M240.93,-355.97C240.93,-336.26 240.93,-315.13 240.93,-299.55"/>
<text xml:space="preserve" text-anchor="middle" x="244.31" y="-320.52" font-family="Times New Roman,serif" font-size="14.00">0</text>
</g>
<!-- n2897046213712 -->
<g id="node12" class="node">
<title>n2897046213712</title>
<ellipse fill="none" stroke="black" cx="402.93" cy="-581.4" rx="55.96" ry="55.96"/>
<text xml:space="preserve" text-anchor="middle" x="402.93" y="-576.35" font-family="Times New Roman,serif" font-size="14.00">p_choice_in</text>
</g>
<!-- n2897046213712&#45;&#45;n2899100753168 -->
<g id="edge20" class="edge">
<title>n2897046213712&#45;&#45;n2899100753168</title>
<path fill="none" stroke="black" d="M431.03,-532.44C447.44,-499.96 464.93,-455.45 464.93,-413.38 464.93,-413.38 464.93,-413.38 464.93,-142.43 464.93,-91.88 412.73,-53.03 379.29,-33.32"/>
<text xml:space="preserve" text-anchor="middle" x="468.31" y="-270.04" font-family="Times New Roman,serif" font-size="14.00">1</text>
</g>
<!-- n2897046213712&#45;&#45;n2897046211984 -->
<g id="edge19" class="edge">
<title>n2897046213712&#45;&#45;n2897046211984</title>
<path fill="none" stroke="black" stroke-dasharray="5,2" d="M394.09,-525.72C391.34,-508.69 388.29,-489.83 385.49,-472.51"/>
<text xml:space="preserve" text-anchor="middle" x="394.43" y="-494.15" font-family="Times New Roman,serif" font-size="14.00">0</text>
</g>
<!-- n2897046212880 -->
<g id="node13" class="node">
<title>n2897046212880</title>
<ellipse fill="none" stroke="black" cx="340.93" cy="-726.37" rx="36.51" ry="36.51"/>
<text xml:space="preserve" text-anchor="middle" x="340.93" y="-721.32" font-family="Times New Roman,serif" font-size="14.00">p_par2</text>
</g>
<!-- n2897046212880&#45;&#45;n2897046209232 -->
<g id="edge21" class="edge">
<title>n2897046212880&#45;&#45;n2897046209232</title>
<path fill="none" stroke="black" stroke-dasharray="5,2" d="M336.81,-689.82C329.91,-633.38 315.27,-526.07 299.93,-490.95 294.38,-478.23 286.33,-465.71 277.96,-454.55"/>
<text xml:space="preserve" text-anchor="middle" x="333.23" y="-576.35" font-family="Times New Roman,serif" font-size="14.00">0</text>
</g>
<!-- n2897046212880&#45;&#45;n2897046213712 -->
<g id="edge22" class="edge">
<title>n2897046212880&#45;&#45;n2897046213712</title>
<path fill="none" stroke="black" d="M355.16,-692.57C362.77,-675.01 372.32,-653 380.88,-633.27"/>
<text xml:space="preserve" text-anchor="middle" x="373.45" y="-658.56" font-family="Times New Roman,serif" font-size="14.00">1</text>
</g>
<!-- n2897046212944 -->
<g id="node14" class="node">
<title>n2897046212944</title>
<ellipse fill="none" stroke="black" cx="340.93" cy="-851.89" rx="36.51" ry="36.51"/>
<text xml:space="preserve" text-anchor="middle" x="340.93" y="-846.84" font-family="Times New Roman,serif" font-size="14.00">p_par1</text>
</g>
<!-- n2897046212944&#45;&#45;n2897046209040 -->
<g id="edge23" class="edge">
<title>n2897046212944&#45;&#45;n2897046209040</title>
<path fill="none" stroke="black" stroke-dasharray="5,2" d="M313.07,-827.95C286.21,-805.83 245.79,-772.55 218.9,-750.4"/>
<text xml:space="preserve" text-anchor="middle" x="278.29" y="-784.08" font-family="Times New Roman,serif" font-size="14.00">0</text>
</g>
<!-- n2897046212944&#45;&#45;n2897046212880 -->
<g id="edge24" class="edge">
<title>n2897046212944&#45;&#45;n2897046212880</title>
<path fill="none" stroke="black" d="M340.93,-815.16C340.93,-798.78 340.93,-779.4 340.93,-763.02"/>
<text xml:space="preserve" text-anchor="middle" x="344.31" y="-784.08" font-family="Times New Roman,serif" font-size="14.00">1</text>
</g>
<!-- n2897046212560 -->
<g id="node15" class="node">
<title>n2897046212560</title>
<ellipse fill="none" stroke="black" cx="449.93" cy="-726.37" rx="36.51" ry="36.51"/>
<text xml:space="preserve" text-anchor="middle" x="449.93" y="-721.32" font-family="Times New Roman,serif" font-size="14.00">p_par2</text>
</g>
<!-- n2897046212560&#45;&#45;n2899100753168 -->
<g id="edge26" class="edge">
<title>n2897046212560&#45;&#45;n2899100753168</title>
<path fill="none" stroke="black" d="M468.62,-694.51C483.88,-666.34 502.93,-623.04 502.93,-582.4 502.93,-582.4 502.93,-582.4 502.93,-142.43 502.93,-79.29 422.79,-42.64 379.28,-27.39"/>
<text xml:space="preserve" text-anchor="middle" x="506.31" y="-320.52" font-family="Times New Roman,serif" font-size="14.00">1</text>
</g>
<!-- n2897046212560&#45;&#45;n2897046213712 -->
<g id="edge25" class="edge">
<title>n2897046212560&#45;&#45;n2897046213712</title>
<path fill="none" stroke="black" stroke-dasharray="5,2" d="M438.68,-691.13C433.16,-674.36 426.4,-653.8 420.25,-635.08"/>
<text xml:space="preserve" text-anchor="middle" x="435.4" y="-658.56" font-family="Times New Roman,serif" font-size="14.00">0</text>
</g>
<!-- n2897046213776 -->
<g id="node16" class="node">
<title>n2897046213776</title>
<ellipse fill="none" stroke="black" cx="449.93" cy="-851.89" rx="36.51" ry="36.51"/>
<text xml:space="preserve" text-anchor="middle" x="449.93" y="-846.84" font-family="Times New Roman,serif" font-size="14.00">p_par1</text>
</g>
<!-- n2897046213776&#45;&#45;n2899100753168 -->
<g id="edge28" class="edge">
<title>n2897046213776&#45;&#45;n2899100753168</title>
<path fill="none" stroke="black" d="M480.45,-830.97C509.53,-809.3 548.93,-771.75 548.93,-727.37 548.93,-727.37 548.93,-727.37 548.93,-142.43 548.93,-63.33 433.46,-33 379.33,-23.13"/>
<text xml:space="preserve" text-anchor="middle" x="552.31" y="-407.33" font-family="Times New Roman,serif" font-size="14.00">1</text>
</g>
<!-- n2897046213776&#45;&#45;n2897046212560 -->
<g id="edge27" class="edge">
<title>n2897046213776&#45;&#45;n2897046212560</title>
<path fill="none" stroke="black" stroke-dasharray="5,2" d="M449.93,-815.16C449.93,-798.78 449.93,-779.4 449.93,-763.02"/>
<text xml:space="preserve" text-anchor="middle" x="453.31" y="-784.08" font-family="Times New Roman,serif" font-size="14.00">0</text>
</g>
<!-- n2899100067088 -->
<g id="node17" class="node">
<title>n2899100067088</title>
<ellipse fill="none" stroke="black" cx="385.93" cy="-967.68" rx="26.78" ry="26.78"/>
<text xml:space="preserve" text-anchor="middle" x="385.93" y="-962.63" font-family="Times New Roman,serif" font-size="14.00">start</text>
</g>
<!-- n2899100067088&#45;&#45;n2897046212944 -->
<g id="edge29" class="edge">
<title>n2899100067088&#45;&#45;n2897046212944</title>
<path fill="none" stroke="black" stroke-dasharray="5,2" d="M376.28,-942.27C369.82,-925.95 361.25,-904.25 354.16,-886.33"/>
<text xml:space="preserve" text-anchor="middle" x="370.84" y="-909.6" font-family="Times New Roman,serif" font-size="14.00">0</text>
</g>
<!-- n2899100067088&#45;&#45;n2897046213776 -->
<g id="edge30" class="edge">
<title>n2899100067088&#45;&#45;n2897046213776</title>
<path fill="none" stroke="black" d="M398.73,-943.93C408.36,-926.81 421.67,-903.14 432.31,-884.22"/>
<text xml:space="preserve" text-anchor="middle" x="421.31" y="-909.6" font-family="Times New Roman,serif" font-size="14.00">1</text>
</g>
</g>
</svg>
