<?xml version="1.0" encoding="UTF-8" standalone="no"?>
<!DOCTYPE svg PUBLIC "-//W3C//DTD SVG 1.1//EN"
 "http://www.w3.org/Graphics/SVG/1.1/DTD/svg11.dtd">
<!-- Generated by graphviz version 14.0.5 (20251129.0259)
 -->
<!-- Title: BDD Pages: 1 -->
<svg width="243pt" height="415pt"
 viewBox="0.00 0.00 243.00 415.00" xmlns="http://www.w3.org/2000/svg" xmlns:xlink="http://www.w3.org/1999/xlink">
<g id="graph0" class="graph" transform="scale(1 1) rotate(0) translate(4 411.05)">
<title>BDD</title>
<polygon fill="white" stroke="none" points="-4,4 -4,-411.05 238.63,-411.05 238.63,4 -4,4"/>
<!-- n2089427737808 -->
<g id="node1" class="node">
<title>n2089427737808</title>
<polygon fill="none" stroke="black" points="190.13,-36 136.13,-36 136.13,0 190.13,0 190.13,-36"/>
<text xml:space="preserve" text-anchor="middle" x="163.13" y="-12.95" font-family="Times New Roman,serif" font-size="14.00">0</text>
</g>
<!-- n2089426209616 -->
<g id="node2" class="node">
<title>n2089426209616</title>
<polygon fill="none" stroke="black" points="97.13,-36 43.13,-36 43.13,0 97.13,0 97.13,-36"/>
<text xml:space="preserve" text-anchor="middle" x="70.13" y="-12.95" font-family="Times New Roman,serif" font-size="14.00">1</text>
</g>
<!-- n2089431482320 -->
<g id="node3" class="node">
<title>n2089431482320</title>
<ellipse fill="none" stroke="black" cx="20.13" cy="-108.63" rx="20.13" ry="20.13"/>
<text xml:space="preserve" text-anchor="middle" x="20.13" y="-103.58" font-family="Times New Roman,serif" font-size="14.00">p4</text>
</g>
<!-- n2089431482320&#45;&#45;n2089427737808 -->
<g id="edge1" class="edge">
<title>n2089431482320&#45;&#45;n2089427737808</title>
<path fill="none" stroke="black" stroke-dasharray="5,2" d="M28.25,-89.91C34.44,-78.2 44,-63.34 56.38,-54 59.67,-51.52 105.14,-37.06 135.66,-27.52"/>
<text xml:space="preserve" text-anchor="middle" x="59.76" y="-57.2" font-family="Times New Roman,serif" font-size="14.00">0</text>
</g>
<!-- n2089431482320&#45;&#45;n2089426209616 -->
<g id="edge2" class="edge">
<title>n2089431482320&#45;&#45;n2089426209616</title>
<path fill="none" stroke="black" d="M17.95,-88.18C17.64,-77.49 18.76,-64.34 24.38,-54 28.68,-46.09 35.62,-39.42 42.8,-34.09"/>
<text xml:space="preserve" text-anchor="middle" x="27.76" y="-57.2" font-family="Times New Roman,serif" font-size="14.00">1</text>
</g>
<!-- n2089431477968 -->
<g id="node4" class="node">
<title>n2089431477968</title>
<ellipse fill="none" stroke="black" cx="76.13" cy="-201.39" rx="20.13" ry="20.13"/>
<text xml:space="preserve" text-anchor="middle" x="76.13" y="-196.34" font-family="Times New Roman,serif" font-size="14.00">p3</text>
</g>
<!-- n2089431477968&#45;&#45;n2089427737808 -->
<g id="edge4" class="edge">
<title>n2089431477968&#45;&#45;n2089427737808</title>
<path fill="none" stroke="black" d="M72.26,-181.17C67.32,-150.97 62.44,-91.95 90.13,-54 100.98,-39.13 119.84,-30.31 135.68,-25.25"/>
<text xml:space="preserve" text-anchor="middle" x="77.26" y="-103.58" font-family="Times New Roman,serif" font-size="14.00">1</text>
</g>
<!-- n2089431477968&#45;&#45;n2089431482320 -->
<g id="edge3" class="edge">
<title>n2089431477968&#45;&#45;n2089431482320</title>
<path fill="none" stroke="black" stroke-dasharray="5,2" d="M65.86,-183.75C55.76,-167.37 40.42,-142.51 30.34,-126.17"/>
<text xml:space="preserve" text-anchor="middle" x="56.52" y="-149.96" font-family="Times New Roman,serif" font-size="14.00">0</text>
</g>
<!-- n2089431480912 -->
<g id="node5" class="node">
<title>n2089431480912</title>
<ellipse fill="none" stroke="black" cx="121.13" cy="-108.63" rx="20.13" ry="20.13"/>
<text xml:space="preserve" text-anchor="middle" x="121.13" y="-103.58" font-family="Times New Roman,serif" font-size="14.00">p4</text>
</g>
<!-- n2089431480912&#45;&#45;n2089427737808 -->
<g id="edge6" class="edge">
<title>n2089431480912&#45;&#45;n2089427737808</title>
<path fill="none" stroke="black" d="M129.43,-90.12C136.79,-74.58 147.49,-52 154.85,-36.47"/>
<text xml:space="preserve" text-anchor="middle" x="149.27" y="-57.2" font-family="Times New Roman,serif" font-size="14.00">1</text>
</g>
<!-- n2089431480912&#45;&#45;n2089426209616 -->
<g id="edge5" class="edge">
<title>n2089431480912&#45;&#45;n2089426209616</title>
<path fill="none" stroke="black" stroke-dasharray="5,2" d="M111.3,-90.54C102.32,-74.95 89.13,-52.01 80.11,-36.34"/>
<text xml:space="preserve" text-anchor="middle" x="102.06" y="-57.2" font-family="Times New Roman,serif" font-size="14.00">0</text>
</g>
<!-- n2089431477008 -->
<g id="node6" class="node">
<title>n2089431477008</title>
<ellipse fill="none" stroke="black" cx="139.13" cy="-201.39" rx="20.13" ry="20.13"/>
<text xml:space="preserve" text-anchor="middle" x="139.13" y="-196.34" font-family="Times New Roman,serif" font-size="14.00">p3</text>
</g>
<!-- n2089431477008&#45;&#45;n2089427737808 -->
<g id="edge7" class="edge">
<title>n2089431477008&#45;&#45;n2089427737808</title>
<path fill="none" stroke="black" stroke-dasharray="5,2" d="M142.24,-181.26C144.55,-166.85 147.69,-146.59 150.13,-128.76 153.67,-102.92 154.07,-96.4 157.13,-70.5 158.49,-59.06 159.99,-46.18 161.15,-36.17"/>
<text xml:space="preserve" text-anchor="middle" x="158.38" y="-103.58" font-family="Times New Roman,serif" font-size="14.00">0</text>
</g>
<!-- n2089431477008&#45;&#45;n2089431480912 -->
<g id="edge8" class="edge">
<title>n2089431477008&#45;&#45;n2089431480912</title>
<path fill="none" stroke="black" d="M135.31,-181.15C132.26,-165.74 128,-144.25 124.94,-128.85"/>
<text xml:space="preserve" text-anchor="middle" x="135.12" y="-149.96" font-family="Times New Roman,serif" font-size="14.00">1</text>
</g>
<!-- n2089394873168 -->
<g id="node7" class="node">
<title>n2089394873168</title>
<ellipse fill="none" stroke="black" cx="139.13" cy="-294.16" rx="20.13" ry="20.13"/>
<text xml:space="preserve" text-anchor="middle" x="139.13" y="-289.11" font-family="Times New Roman,serif" font-size="14.00">p2</text>
</g>
<!-- n2089394873168&#45;&#45;n2089431477968 -->
<g id="edge9" class="edge">
<title>n2089394873168&#45;&#45;n2089431477968</title>
<path fill="none" stroke="black" stroke-dasharray="5,2" d="M127.87,-276.93C116.4,-260.41 98.73,-234.95 87.3,-218.48"/>
<text xml:space="preserve" text-anchor="middle" x="116.65" y="-242.72" font-family="Times New Roman,serif" font-size="14.00">0</text>
</g>
<!-- n2089394873168&#45;&#45;n2089431477008 -->
<g id="edge10" class="edge">
<title>n2089394873168&#45;&#45;n2089431477008</title>
<path fill="none" stroke="black" d="M139.13,-273.91C139.13,-258.61 139.13,-237.3 139.13,-221.93"/>
<text xml:space="preserve" text-anchor="middle" x="142.51" y="-242.72" font-family="Times New Roman,serif" font-size="14.00">1</text>
</g>
<!-- n2089431477584 -->
<g id="node8" class="node">
<title>n2089431477584</title>
<ellipse fill="none" stroke="black" cx="202.13" cy="-201.39" rx="20.13" ry="20.13"/>
<text xml:space="preserve" text-anchor="middle" x="202.13" y="-196.34" font-family="Times New Roman,serif" font-size="14.00">p3</text>
</g>
<!-- n2089431477584&#45;&#45;n2089427737808 -->
<g id="edge12" class="edge">
<title>n2089431477584&#45;&#45;n2089427737808</title>
<path fill="none" stroke="black" d="M198.55,-181.38C193.2,-153.39 182.64,-99.5 172.13,-54 170.8,-48.25 169.24,-42.01 167.79,-36.41"/>
<text xml:space="preserve" text-anchor="middle" x="191.24" y="-103.58" font-family="Times New Roman,serif" font-size="14.00">1</text>
</g>
<!-- n2089431477584&#45;&#45;n2089431480912 -->
<g id="edge11" class="edge">
<title>n2089431477584&#45;&#45;n2089431480912</title>
<path fill="none" stroke="black" stroke-dasharray="5,2" d="M189.12,-185.81C174,-168.87 149.21,-141.1 134.11,-124.18"/>
<text xml:space="preserve" text-anchor="middle" x="172.26" y="-149.96" font-family="Times New Roman,serif" font-size="14.00">0</text>
</g>
<!-- n2089431477328 -->
<g id="node9" class="node">
<title>n2089431477328</title>
<ellipse fill="none" stroke="black" cx="202.13" cy="-294.16" rx="20.13" ry="20.13"/>
<text xml:space="preserve" text-anchor="middle" x="202.13" y="-289.11" font-family="Times New Roman,serif" font-size="14.00">p2</text>
</g>
<!-- n2089431477328&#45;&#45;n2089427737808 -->
<g id="edge14" class="edge">
<title>n2089431477328&#45;&#45;n2089427737808</title>
<path fill="none" stroke="black" d="M211.38,-275.78C218.36,-261.63 227.36,-240.88 231.13,-221.52 234.55,-203.96 234.03,-198.92 231.13,-181.26 221.45,-122.35 215.33,-107.15 188.13,-54 185,-47.88 180.89,-41.64 176.91,-36.16"/>
<text xml:space="preserve" text-anchor="middle" x="231.26" y="-149.96" font-family="Times New Roman,serif" font-size="14.00">1</text>
</g>
<!-- n2089431477328&#45;&#45;n2089431477584 -->
<g id="edge13" class="edge">
<title>n2089431477328&#45;&#45;n2089431477584</title>
<path fill="none" stroke="black" stroke-dasharray="5,2" d="M202.13,-273.91C202.13,-258.61 202.13,-237.3 202.13,-221.93"/>
<text xml:space="preserve" text-anchor="middle" x="205.51" y="-242.72" font-family="Times New Roman,serif" font-size="14.00">0</text>
</g>
<!-- n2089394781776 -->
<g id="node10" class="node">
<title>n2089394781776</title>
<ellipse fill="none" stroke="black" cx="168.13" cy="-386.92" rx="20.13" ry="20.13"/>
<text xml:space="preserve" text-anchor="middle" x="168.13" y="-381.87" font-family="Times New Roman,serif" font-size="14.00">p1</text>
</g>
<!-- n2089394781776&#45;&#45;n2089394873168 -->
<g id="edge15" class="edge">
<title>n2089394781776&#45;&#45;n2089394873168</title>
<path fill="none" stroke="black" stroke-dasharray="5,2" d="M162.26,-367.55C157.26,-351.91 150.11,-329.53 145.09,-313.81"/>
<text xml:space="preserve" text-anchor="middle" x="159.6" y="-335.49" font-family="Times New Roman,serif" font-size="14.00">0</text>
</g>
<!-- n2089394781776&#45;&#45;n2089431477328 -->
<g id="edge16" class="edge">
<title>n2089394781776&#45;&#45;n2089431477328</title>
<path fill="none" stroke="black" d="M175.01,-367.55C180.91,-351.8 189.37,-329.23 195.26,-313.5"/>
<text xml:space="preserve" text-anchor="middle" x="191.55" y="-335.49" font-family="Times New Roman,serif" font-size="14.00">1</text>
</g>
</g>
</svg>
